PathFileType	3	(X/Y/Z)	C:\Users\koon_\Desktop\
DataRate	CameraRate	NumFrames	NumMarkers	Units	OrigDataRate	OrigDataStartFrame	OrigNumFrames
100.0	100.0	10	27	mm	100.0	1	3786	
Frame#	Time	get:LFHD			get:RFHD			get:LBHD			get:RBHD			get:C7			get:T10			get:CLAV			get:STRN			get:RBAK			get:LSHO			get:LUPA			get:LELB			get:LFRA			get:LWRA			get:LWRB			get:LFIN			get:RSHO			get:RUPA			get:RELB			get:RFRA			get:RWRA			get:RWRB			get:RFIN			get:LASI			get:RASI			get:LPSI			get:RPSI			
		X1	Y1	Z1	X2	Y2	Z2	X3	Y3	Z3	X4	Y4	Z4	X5	Y5	Z5	X6	Y6	Z6	X7	Y7	Z7	X8	Y8	Z8	X9	Y9	Z9	X10	Y10	Z10	X11	Y11	Z11	X12	Y12	Z12	X13	Y13	Z13	X14	Y14	Z14	X15	Y15	Z15	X16	Y16	Z16	X17	Y17	Z17	X18	Y18	Z18	X19	Y19	Z19	X20	Y20	Z20	X21	Y21	Z21	X22	Y22	Z22	X23	Y23	Z23	X24	Y24	Z24	X25	Y25	Z25	X26	Y26	Z26	X27	Y27	Z27	
1	0	93.821884	1571.8607	-68.831543	-63.076801	1563.1937	-69.91658	89.524384	1565.0355	-193.52658	-36.420914	1568.5167	-213.93941	25.812429	1381.1803	-230.64355	24.830448	1122.0803	-275.96481	20.408443	1295.395	-53.976917	30.593891	1106.6074	-16.049883	-59.036541	1313.7203	-264.67322	187.36719	1357.772	-139.52098	240.69817	1211.2582	-130.56905	266.19388	1031.8165	-156.50746	237.22931	935.59259	-79.946243	217.46786	841.95209	-67.59359	279.80109	837.80481	-98.38559	268.79877	759.21936	-52.083881	-132.09529	1362.1248	-150.87985	-204.30363	1143.9399	-123.57116	-215.51535	1036.6665	-172.05357	-200.6777	973.7962	-85.829956	-181.21425	822.43591	-52.443848	-230.90025	819.56458	-107.52963	-227.38696	754.76184	-41.530365	159.07469	928.71222	-80.184944	-119.60221	915.19855	-79.995285	73.003967	959.18103	-281.54791	-36.119083	949.84082	-282.31845
2	0.01	93.764496	1571.8787	-68.86396	-63.117584	1563.1846	-70.063972	89.50769	1565.0243	-193.59998	-36.48402	1568.0863	-213.85425	25.770483	1381.2155	-230.76971	24.881216	1122.0931	-276.03241	20.359173	1295.3972	-54.000744	30.537317	1106.5813	-16.048157	-59.024597	1313.7721	-264.84467	187.35777	1357.7831	-139.52458	240.67195	1211.2598	-130.50075	266.11203	1031.7295	-156.118	237.06801	935.68091	-79.708481	217.23895	842.03662	-67.244476	279.55167	837.84717	-97.934349	268.46704	759.35498	-51.523895	-132.13318	1362.1012	-150.97519	-204.3119	1143.9188	-123.72643	-215.48354	1036.6729	-172.36842	-200.71902	973.6972	-86.149963	-181.31415	822.32361	-52.813805	-230.9256	819.49225	-107.96566	-227.4467	754.65698	-41.985714	159.09613	928.73059	-80.188194	-119.58022	915.22247	-80.059441	73.020096	959.15723	-281.6282	-36.384438	949.58807	-281.19528
3	0.02	93.715797	1571.897	-68.924217	-63.192577	1563.1965	-70.147301	89.501747	1565.0243	-193.63681	-36.484482	1568.083	-213.95605	25.811235	1381.1658	-230.7209	24.882143	1122.0995	-276.07516	19.514948	1295.3206	-53.968723	29.73649	1106.5172	-16.118299	-58.975071	1313.7732	-264.89871	187.33757	1357.796	-139.52362	240.65845	1211.2668	-130.49335	266.02975	1031.6492	-155.77675	236.85529	935.79034	-79.493416	216.98384	842.15454	-66.908188	279.3175	837.87262	-97.544365	268.15057	759.44122	-51.058754	-132.14046	1362.0886	-151.04272	-204.35138	1143.8944	-123.91753	-215.47336	1036.6832	-172.57693	-200.79147	973.61932	-86.452568	-181.37798	822.2066	-53.270935	-230.97433	819.45398	-108.41079	-227.53204	754.51001	-42.586231	159.1017	928.74286	-80.184402	-119.56789	915.2392	-80.160583	73.067848	959.15735	-281.70114	-36.328636	949.58051	-281.31021
4	0.03	93.676117	1571.92	-68.996529	-63.232773	1563.1909	-70.226898	89.459236	1564.9868	-193.71161	-36.517452	1568.045	-214.03842	25.825247	1381.2402	-230.90915	24.916834	1122.0968	-276.16327	19.463861	1295.3187	-53.990528	29.728367	1106.5148	-16.211559	-58.971497	1313.7822	-264.9895	187.32687	1357.8278	-139.5047	240.63586	1211.2864	-130.47066	266.11118	1031.6024	-155.83154	236.65724	935.87769	-79.266762	216.71747	842.31134	-66.565338	279.06824	837.90173	-97.107574	267.77573	759.53296	-50.572292	-132.15858	1362.0767	-151.14146	-204.34933	1143.8536	-124.09861	-215.4588	1036.675	-172.80692	-200.83769	973.54205	-86.746895	-181.46101	822.10577	-53.73378	-231.02098	819.41351	-108.90086	-227.61061	754.37592	-43.119724	159.1295	928.75421	-80.227142	-119.55209	915.24066	-80.22567	73.088669	959.1358	-281.76895	-36.304211	949.56824	-281.36526
5	0.04	93.596725	1571.9576	-69.074982	-63.316048	1563.182	-70.379509	89.431778	1564.9998	-193.77129	-36.550049	1567.998	-214.11461	25.822836	1381.2209	-230.90465	24.967758	1122.1036	-276.18787	19.496023	1295.3219	-54.07938	29.707911	1106.5265	-16.309895	-58.941029	1313.818	-265.10522	187.29031	1357.8352	-139.50484	240.57852	1211.3036	-130.41277	265.88742	1031.5415	-155.36406	236.43069	935.96826	-79.050423	216.39441	842.45959	-66.171509	278.81067	837.92688	-96.73484	267.43997	759.63239	-50.058697	-132.17671	1362.0869	-151.24464	-204.38223	1143.8451	-124.29118	-215.479	1036.676	-173.05095	-200.90627	973.48016	-87.053017	-181.56425	822.01801	-54.125675	-231.10504	819.34717	-109.36951	-227.72882	754.23022	-43.720333	159.15727	928.76184	-80.2631	-119.55772	915.27936	-80.322792	73.118355	959.14484	-281.81528	-36.252869	949.55267	-281.41846
6	0.05	93.542999	1571.9532	-69.141869	-63.354092	1563.1588	-70.468788	89.419472	1564.9762	-193.82146	-36.548683	1567.953	-214.18445	25.838068	1381.2122	-230.87363	25.019239	1122.1177	-276.25488	19.478582	1295.3081	-54.082623	29.708923	1106.5259	-16.379827	-58.916325	1313.7852	-265.12979	187.27672	1357.8392	-139.53093	240.55081	1211.311	-130.38985	265.75656	1031.4725	-155.246	236.19907	936.05933	-78.800262	216.11269	842.5752	-65.794952	278.51587	837.97589	-96.346237	267.07401	759.77197	-49.5224	-132.17567	1362.0642	-151.33344	-204.44569	1143.8279	-124.45164	-215.46962	1036.6641	-173.3091	-200.97749	973.41522	-87.356575	-181.65778	821.86047	-54.612339	-231.18333	819.32684	-109.91846	-227.85925	754.11145	-44.272873	159.15015	928.78625	-80.291588	-119.56581	915.27325	-80.421303	73.148949	959.12201	-281.87897	-36.213699	949.54248	-281.4957
7	0.06	93.493652	1571.9922	-69.16172	-63.451862	1563.1792	-70.602531	89.389809	1564.9655	-193.87976	-36.560253	1568.2158	-214.48549	25.841137	1381.2643	-231.00909	25.040873	1122.1085	-276.28394	19.485626	1295.311	-54.0765	29.685619	1106.5228	-16.366899	-58.893696	1313.7894	-265.16718	187.25024	1357.8849	-139.51846	240.51762	1211.3311	-130.32584	265.67834	1031.4435	-155.1217	235.98048	936.15125	-78.552269	215.80167	842.71271	-65.379829	278.23898	838.00391	-95.890518	266.69614	759.8739	-48.948025	-132.18155	1362.0631	-151.40565	-204.47601	1143.7892	-124.62814	-215.49257	1036.6755	-173.61842	-201.06233	973.31506	-87.742554	-181.76428	821.73895	-55.031563	-231.24509	819.24835	-110.39542	-227.97365	753.96375	-44.869286	159.18034	928.79095	-80.289078	-119.51699	915.28094	-80.474983	73.205902	959.12183	-281.9462	-36.202461	949.48669	-281.50986
8	0.07	93.422897	1572.0088	-69.213249	-63.501911	1563.1227	-70.728935	89.35952	1564.9536	-193.91972	-36.565662	1568.183	-214.57722	25.870733	1381.2706	-231.01823	25.072798	1122.1406	-276.35086	19.438667	1295.3295	-54.091381	29.675184	1106.5238	-16.456085	-58.897861	1313.799	-265.21466	187.2356	1357.8931	-139.52522	240.50079	1211.3334	-130.29095	265.58475	1031.416	-154.98193	235.74092	936.2666	-78.275635	215.49283	842.82031	-65.122772	277.93311	838.03973	-95.455551	266.30951	759.9754	-48.46793	-132.2012	1362.0629	-151.47238	-204.51433	1143.7803	-124.83359	-215.50734	1036.6599	-173.8784	-201.13231	973.23114	-87.995918	-181.89438	821.59967	-55.522808	-231.34811	819.18701	-110.92976	-228.13156	753.85046	-45.472435	159.17714	928.83569	-80.267517	-119.52785	915.25476	-80.573013	73.278793	959.13641	-281.99817	-36.148109	949.48798	-281.57605
9	0.08	93.352623	1572.024	-69.29454	-63.572033	1563.1165	-70.819023	89.334373	1564.9652	-193.94032	-36.635136	1568.1315	-214.68114	25.898151	1381.2889	-231.06934	25.117725	1122.175	-276.42548	19.413095	1295.3326	-54.159737	29.652706	1106.5117	-16.518057	-58.871178	1313.7701	-265.23944	187.2177	1357.9249	-139.53612	240.4481	1211.3539	-130.21611	265.49561	1031.3776	-154.90477	235.5211	936.36023	-77.990578	215.15535	842.94257	-64.829987	277.6814	838.08838	-95.065506	265.90826	760.13214	-47.943245	-132.20847	1362.0511	-151.53253	-204.55911	1143.7535	-125.01454	-215.56305	1036.6724	-174.10777	-201.22757	973.1687	-88.346367	-182.03601	821.48669	-56.154015	-231.45027	819.14349	-111.41783	-228.2818	753.71844	-46.111511	159.18626	928.86249	-80.231468	-119.53848	915.29083	-80.678146	73.330223	959.15149	-282.06625	-36.123447	949.45233	-281.64383
10	0.09	93.265472	1572.0454	-69.368164	-63.64513	1563.1094	-70.913132	89.317032	1564.9933	-194.03552	-36.643417	1568.0693	-214.74794	25.898634	1381.3193	-231.17111	25.149427	1122.203	-276.51126	19.370279	1295.3423	-54.177952	29.600714	1106.5205	-16.539362	-58.844215	1313.8098	-265.35559	187.19678	1357.953	-139.53749	240.41829	1211.3652	-130.16269	265.42126	1031.3549	-154.84186	235.32765	936.42657	-77.778999	214.8737	843.08563	-64.490593	277.39352	838.11407	-94.666786	265.53128	760.21216	-47.47319	-132.20161	1362.0485	-151.61534	-204.62877	1143.7479	-125.1913	-215.60017	1036.6865	-174.4292	-201.33047	973.10455	-88.689903	-182.17107	821.32288	-56.643394	-231.56441	819.11371	-112.06081	-228.48454	753.56964	-46.776688	159.19724	928.89282	-80.12841	-119.52464	915.26471	-80.841446	73.378517	959.15228	-282.13837	-36.068066	949.47357	-281.7435
